<?xml version="1.0" encoding="UTF-8"?>
<!DOCTYPE svg PUBLIC "-//W3C//DTD SVG 1.1//EN" "http://www.w3.org/Graphics/SVG/1.1/DTD/svg11.dtd">
<!-- Creator: CorelDRAW X7 -->
<svg xmlns="http://www.w3.org/2000/svg" xml:space="preserve" width="140px" height="140px" version="1.1" style="position:relative;bottom:30px;shape-rendering:geometricPrecision; text-rendering:geometricPrecision; image-rendering:optimizeQuality; fillRule:evenodd; clip-rule:evenodd"
viewBox="0 0 11000 8500"
 xmlns:xlink="http://www.w3.org/1999/xlink">
 <defs>
  <style type="text/css">
    .fil2 {fill:none}
    .fil0 {fill:#0442BF;fillRule:nonzero}
    .fil1 {fill:#3C75E8;fillRule:nonzero}
  </style>
 </defs>
 <g id="Layer_x0020_1">
  <metadata id="CorelCorpID_0Corel-Layer"/>
  <g id="_1278213582832">
   <path class="fil0" d="M935 5348c-219,0 -396,-43 -530,-129 -65,-38 -97,-93 -97,-163 0,-40 11,-73 33,-98 22,-25 50,-38 82,-38 34,0 81,17 141,49 65,30 123,53 177,69 53,16 121,24 203,24 84,0 150,-14 197,-42 48,-28 71,-67 71,-118 0,-34 -9,-61 -28,-81 -20,-20 -54,-39 -103,-56 -49,-17 -124,-36 -224,-58 -179,-37 -307,-88 -385,-154 -77,-66 -116,-158 -116,-274 0,-89 27,-169 79,-240 52,-71 124,-126 215,-166 92,-39 196,-58 312,-58 84,0 166,10 244,31 79,21 149,52 211,92 64,40 97,94 97,160 0,40 -12,74 -34,101 -22,27 -49,40 -81,40 -22,0 -44,-4 -65,-13 -21,-9 -47,-23 -80,-41 -58,-30 -108,-53 -150,-68 -42,-15 -95,-22 -157,-22 -74,0 -133,15 -176,45 -43,30 -65,71 -65,124 0,50 22,88 66,114 44,26 130,52 256,78 135,29 240,61 317,97 76,36 131,81 164,135 33,55 50,124 50,208 0,137 -57,246 -171,329 -113,82 -264,123 -453,123z"/>
   <path class="fil0" d="M3174 5032c40,38 60,81 60,130 0,46 -17,87 -50,123 -33,36 -71,54 -116,54 -44,0 -85,-18 -123,-54l-705 -639 0 516c0,58 -18,102 -55,132 -36,30 -81,45 -135,45 -54,0 -99,-15 -134,-45 -35,-30 -53,-74 -53,-132l0 -1799c0,-59 18,-103 53,-133 35,-30 80,-45 134,-45 54,0 99,15 135,45 37,30 55,74 55,133l0 1133 645 -618c36,-36 77,-54 123,-54 46,0 86,17 121,51 34,34 51,74 51,120 0,47 -19,89 -57,127l-474 440 525 470z"/>
   <path class="fil1" d="M3665 3552c-68,0 -123,-18 -163,-55 -40,-37 -60,-86 -60,-146 0,-61 20,-109 60,-145 40,-36 95,-54 163,-54 66,0 120,18 161,54 41,36 62,84 62,145 0,60 -20,109 -60,146 -41,37 -95,55 -163,55z"/>
   <path class="fil0" d="M3665 5342c-54,0 -99,-15 -134,-46 -35,-32 -53,-76 -53,-135l0 -1163c0,-58 18,-102 53,-132 35,-30 80,-45 134,-45 54,0 99,15 136,45 36,30 54,74 54,132l0 1163c0,59 -18,103 -54,135 -37,31 -82,46 -136,46z"/>
   <path class="fil0" d="M4430 5342c-54,0 -99,-15 -134,-46 -35,-32 -53,-76 -53,-134l0 -1799c0,-59 18,-103 53,-133 35,-30 80,-45 134,-45 55,0 100,15 136,45 36,30 54,74 54,133l0 1799c0,58 -18,102 -54,134 -36,31 -81,46 -136,46z"/>
   <path class="fil0" d="M5196 5342c-55,0 -99,-15 -134,-46 -36,-32 -53,-76 -53,-134l0 -1799c0,-59 17,-103 53,-133 35,-30 79,-45 134,-45 54,0 99,15 135,45 36,30 54,74 54,133l0 1799c0,58 -18,102 -54,134 -36,31 -81,46 -135,46z"/>
   <path class="fil0" d="M6630 3815c177,0 308,50 395,150 86,101 129,252 129,455l0 742c0,56 -16,100 -49,132 -34,32 -79,48 -138,48 -58,0 -104,-16 -138,-48 -34,-32 -51,-76 -51,-132l0 -721c0,-114 -22,-198 -65,-250 -43,-52 -111,-78 -204,-78 -108,0 -195,34 -260,102 -66,69 -98,160 -98,275l0 672c0,56 -17,100 -51,132 -35,32 -81,48 -139,48 -58,0 -104,-16 -137,-48 -33,-32 -50,-76 -50,-132l0 -1167c0,-52 17,-94 51,-126 35,-32 81,-48 139,-48 52,0 95,15 128,46 33,31 50,72 50,122l0 82c50,-83 117,-146 202,-190 84,-44 179,-66 286,-66z"/>
   <path class="fil0" d="M8209 5348c-151,0 -283,-31 -396,-93 -114,-62 -202,-152 -264,-268 -62,-117 -93,-252 -93,-407 0,-155 31,-290 93,-405 62,-116 150,-205 264,-267 113,-62 245,-93 396,-93 151,0 283,31 396,93 114,62 201,151 262,267 62,115 92,250 92,405 0,155 -30,290 -92,407 -61,116 -148,206 -262,268 -113,62 -245,93 -396,93zm-3 -292c122,0 216,-40 280,-120 64,-81 97,-199 97,-356 0,-155 -33,-273 -97,-354 -64,-81 -157,-122 -277,-122 -121,0 -214,41 -279,122 -65,81 -98,199 -98,354 0,157 32,275 97,356 64,80 156,120 277,120z"/>
   <path class="fil0" d="M10499 3185c56,0 102,16 139,48 36,32 54,74 54,127l0 1802c0,54 -17,97 -51,129 -35,32 -80,48 -136,48 -56,0 -101,-16 -136,-48 -34,-32 -51,-75 -51,-129l0 -76c-44,83 -108,147 -191,193 -84,46 -178,69 -285,69 -127,0 -240,-32 -339,-96 -99,-64 -177,-155 -232,-273 -55,-117 -83,-252 -83,-405 0,-153 28,-286 83,-401 55,-114 132,-203 231,-265 98,-62 211,-93 340,-93 107,0 201,22 283,66 83,44 146,106 190,187l0 -714c0,-51 17,-91 50,-122 33,-32 78,-47 134,-47zm-558 1871c121,0 214,-41 279,-123 65,-83 98,-200 98,-353 0,-153 -33,-270 -98,-351 -65,-81 -157,-122 -276,-122 -120,0 -213,40 -280,120 -66,81 -99,196 -99,347 0,153 33,271 99,355 67,85 159,127 277,127z"/>
  </g>
  <rect class="fil2" x="218" y="3054" width="10564" height="2392"/>
 </g>
</svg>
