<?xml version="1.0" encoding="utf-8"?>
<!-- Svg Vector Icons : http://www.onlinewebfonts.com/icon -->
<!DOCTYPE svg PUBLIC "-//W3C//DTD SVG 1.1//EN" "http://www.w3.org/Graphics/SVG/1.1/DTD/svg11.dtd">
<svg version="1.1" xmlns="http://www.w3.org/2000/svg" xmlns:xlink="http://www.w3.org/1999/xlink" x="0px" y="0px" viewBox="0 0 1000 1000" enable-background="new 0 0 1000 1000" xml:space="preserve">
<metadata> Svg Vector Icons : http://www.onlinewebfonts.com/icon </metadata>
<g><path d="M843.1,602.3c-8.8-8.8-19.3-13.2-31.3-13.2H188.2c-12.1,0-22.5,4.4-31.3,13.2c-8.8,8.8-13.2,19.2-13.2,31.3c0,12.1,4.4,22.5,13.2,31.3l311.8,311.8c8.8,8.8,19.3,13.2,31.3,13.2c12.1,0,22.5-4.4,31.3-13.2L843.1,665c8.8-8.8,13.2-19.3,13.2-31.3C856.4,621.6,852,611.1,843.1,602.3L843.1,602.3z"/><path d="M500,40.5c3.3,0,6.2,0.7,9.8,4.3l311.8,311.8c3.6,3.6,4.3,6.5,4.3,9.8c0,3.3-0.7,6.2-4.3,9.8c-3.6,3.6-6.5,4.3-9.8,4.3H188.2c-3.3,0-6.2-0.7-9.8-4.3c-3.6-3.6-4.3-6.5-4.3-9.8c0-3.3,0.7-6.2,4.3-9.8L490.2,44.7C493.8,41.2,496.7,40.5,500,40.5 M500,10c-12.1,0-22.5,4.4-31.3,13.2L156.9,335c-8.8,8.8-13.2,19.3-13.2,31.3c0,12.1,4.4,22.5,13.2,31.3c8.8,8.8,19.2,13.2,31.3,13.2h623.6c12.1,0,22.5-4.4,31.3-13.2c8.8-8.8,13.2-19.3,13.2-31.3c0-12.1-4.4-22.5-13.2-31.3L531.3,23.2C522.5,14.4,512.1,10,500,10L500,10L500,10z"/></g>
</svg>