<?xml version="1.0" encoding="utf-8"?>
<!-- Svg Vector Icons : http://www.onlinewebfonts.com/icon -->
<!DOCTYPE svg PUBLIC "-//W3C//DTD SVG 1.1//EN" "http://www.w3.org/Graphics/SVG/1.1/DTD/svg11.dtd">
<svg version="1.1" xmlns="http://www.w3.org/2000/svg" xmlns:xlink="http://www.w3.org/1999/xlink" x="0px" y="0px" viewBox="0 0 1000 1000" enable-background="new 0 0 1000 1000" xml:space="preserve">
<metadata> Svg Vector Icons : http://www.onlinewebfonts.com/icon </metadata>
<g><path d="M156.9,397.7c8.8,8.8,19.3,13.2,31.3,13.2h623.6c12.1,0,22.5-4.4,31.3-13.2c8.8-8.8,13.2-19.2,13.2-31.3c0-12.1-4.4-22.5-13.2-31.3L531.3,23.2C522.5,14.4,512.1,10,500,10c-12.1,0-22.5,4.4-31.3,13.2L156.9,335c-8.8,8.8-13.2,19.3-13.2,31.3C143.6,378.4,148,388.9,156.9,397.7L156.9,397.7z"/><path d="M500,959.5c-3.3,0-6.2-0.7-9.8-4.3L178.4,643.4c-3.6-3.6-4.3-6.5-4.3-9.8c0-3.3,0.7-6.2,4.3-9.8c3.6-3.6,6.5-4.3,9.8-4.3h623.6c3.3,0,6.2,0.7,9.8,4.3c3.6,3.6,4.3,6.5,4.3,9.8c0,3.3-0.7,6.2-4.3,9.8L509.8,955.3C506.2,958.8,503.3,959.5,500,959.5 M500,990c12.1,0,22.5-4.4,31.3-13.2L843.1,665c8.8-8.8,13.2-19.3,13.2-31.3c0-12.1-4.4-22.5-13.2-31.3c-8.8-8.8-19.2-13.2-31.3-13.2H188.2c-12.1,0-22.5,4.4-31.3,13.2c-8.8,8.8-13.2,19.3-13.2,31.3c0,12.1,4.4,22.5,13.2,31.3l311.8,311.8C477.5,985.6,487.9,990,500,990L500,990L500,990z"/></g>
</svg>