<?xml version="1.0" encoding="UTF-8"?>
<svg id="Layer_1" data-name="Layer 1" xmlns="http://www.w3.org/2000/svg" viewBox="0 0 182.42 199.32" width="25px" height="25px">
  <defs>
    <style>
      .cls-1 {
        fill: #fff;
      }

      .cls-2 {
        fill: #0f2943;
      }

      .cls-3 {
        fill: #3971cc;
      }
    </style>
  </defs>
  <rect class="cls-1" y=".07" width="182.42" height="199.25"/>
  <g>
    <path class="cls-2" d="m169,57.26c-.05.02-.1.04-.13.1-.05.1-.05.21-.04.31.08.95.1,1.91.04,2.86-.07,1.27-.27,2.53-.6,3.76-.15.56-.33,1.12-.53,1.66-.44,1.18-1.49,4.66-4.55,6.93-8.49,6.3-17.3,6.44-23.97,3-1.99-1.02-3.57.61-3.57,2.12v55.7c0,22.8-14.82,34.19-44.44,34.19-15.27,0-26.49-2.87-33.67-8.62-7.18-5.74-10.77-14.26-10.77-25.57V.8H0v132.9c0,43.75,30.14,65.62,90.43,65.62,30.14,0,53.01-5.46,68.6-16.4,15.59-10.94,23.39-27.34,23.39-49.22V50.16c-1.11,1.08-2.32,2.08-3.6,2.96-1.04.72-2.13,1.36-3.27,1.93s-2.33,1.05-3.55,1.44c-.52.17-1.05.32-1.59.46-.27.07-.55.13-.82.19-.13.03-.27.06-.4.09-.06.01-.14.02-.2.03Z"/>
    <circle class="cls-3" cx="148.51" cy="57.76" r="10.37"/>
    <circle class="cls-3" cx="143.6" cy="8.03" r="7.95"/>
    <circle class="cls-3" cx="163.64" cy="30.9" r="14.92"/>
  </g>
</svg>